<svg width="24px" height="18px" viewBox="0 0 24 18">
  <g stroke="none" stroke-width="1" fill="none" fill-rule="evenodd">
    <path d="M19.486,15.011 C18.658,15.011 17.986,15.683 17.986,16.511 C17.986,17.339 18.658,18.011 19.486,18.011 C20.314,18.011 20.986,17.339 20.986,16.511 C20.986,15.683 20.314,15.011 19.486,15.011 L19.486,15.011 Z M21.968,3.001 L20.167,12.007 L8.787,12.007 L6.213,2.27373675e-13 L0,2.27373675e-13 L0,2 L4.596,2 L7.169,14.007 L21.805,14.007 L24.007,3.001 L21.968,3.001 Z M10.978,16.511 C10.978,17.339 10.306,18.011 9.478,18.011 C8.65,18.011 7.978,17.339 7.978,16.511 C7.978,15.683 8.65,15.011 9.478,15.011 C10.306,15.011 10.978,15.683 10.978,16.511 L10.978,16.511 Z"></path>
      <polygon className="bar" points="6.5981 5.001 22.6081 5.001 22.6081 3.001 6.5981 3.001"></polygon>
  </g>
</svg>